<svg width="280" height="50" viewBox="0 0 280 50" fill="none" xmlns="http://www.w3.org/2000/svg">
  <!-- Bloom Flower Icon - 6 petal arrangement -->
  <g transform="translate(5, 5)">
    <!-- Orange petal (top-right) -->
    <path d="M22 4C22 4 26 8 26 14C26 16 24 18 22 18C20 18 18 16 18 14C18 8 22 4 22 4Z" fill="#F6921E"/>
    <!-- Green petal (right) -->
    <path d="M36 14C36 14 32 18 26 18C24 18 22 16 22 14C22 12 24 10 26 10C32 10 36 14 36 14Z" fill="#37A526"/>
    <!-- Yellow-green petal (bottom-right) -->
    <path d="M36 26C36 26 32 22 26 22C24 22 22 24 22 26C22 28 24 30 26 30C32 30 36 26 36 26Z" fill="#8BC53F"/>
    <!-- Yellow petal (top-left) -->
    <path d="M8 14C8 14 12 10 18 10C20 10 22 12 22 14C22 16 20 18 18 18C12 18 8 14 8 14Z" fill="#E8DE23"/>
    <!-- Blue petal (bottom-left) -->
    <path d="M8 26C8 26 12 22 18 22C20 22 22 24 22 26C22 28 20 30 18 30C12 30 8 26 8 26Z" fill="#1B75BB"/>
    <!-- Light blue/cyan petal (bottom) -->
    <path d="M22 36C22 36 18 32 18 26C18 24 20 22 22 22C24 22 26 24 26 26C26 32 22 36 22 36Z" fill="#00ADEE"/>
  </g>
  <!-- Bloom Insurance Text -->
  <text x="52" y="22" font-family="'Open Sans', Arial, sans-serif" font-size="22" font-weight="bold" fill="#808285">Bloom</text>
  <text x="52" y="40" font-family="'Open Sans', Arial, sans-serif" font-size="14" font-weight="normal" fill="#808285">Insurance</text>
</svg>
